<svg xmlns="http://www.w3.org/2000/svg" xmlns:xlink="http://www.w3.org/1999/xlink" width="15" height="14" viewBox="0 0 15 14"><defs><path id="56ega" d="M277.23 2022.88l14.21-5.86c.3-.12.62.16.55.5l-2.55 13.1c-.06.3-.4.45-.64.26l-3.48-2.7a.55.55 0 0 0-.7.02l-1.94 1.68c-.22.2-.56.09-.64-.2l-1.34-4.6-3.47-1.39c-.35-.14-.35-.67 0-.81zm4.3 2.28l.72 2.74c.06.2.32.18.35-.02l.19-1.51c.03-.28.16-.54.36-.74l5.58-5.54c.1-.1-.02-.28-.14-.2l-6.77 4.45a.75.75 0 0 0-.3.82z"/></defs><g><g transform="translate(-277 -2017)"><use fill="#fff" xlink:href="#56ega"/></g></g></svg>