<svg xmlns="http://www.w3.org/2000/svg" xmlns:xlink="http://www.w3.org/1999/xlink" width="15" height="13" viewBox="0 0 15 13"><defs><path id="t5pra" d="M205.59 2017.24c-.6.37-1.26.65-1.96.8a2.98 2.98 0 0 0-2.24-1.04c-1.7 0-3.08 1.47-3.08 3.28 0 .26.03.5.08.75a8.56 8.56 0 0 1-6.35-3.43 3.43 3.43 0 0 0 .96 4.38c-.5-.02-.98-.17-1.4-.41v.04c0 1.59 1.06 2.92 2.47 3.22a2.96 2.96 0 0 1-1.39.05 3.11 3.11 0 0 0 2.88 2.28 5.93 5.93 0 0 1-4.56 1.36 8.33 8.33 0 0 0 4.72 1.48c5.66 0 8.75-5 8.75-9.34v-.43a6.45 6.45 0 0 0 1.53-1.7c-.55.27-1.14.44-1.77.52a3.27 3.27 0 0 0 1.36-1.81z"/></defs><g><g transform="translate(-191 -2017)"><use fill="#fff" xlink:href="#t5pra"/></g></g></svg>