<svg xmlns="http://www.w3.org/2000/svg" xmlns:xlink="http://www.w3.org/1999/xlink" width="17" height="13" viewBox="0 0 17 13"><defs><path id="46swa" d="M249 2023.5l-.01 1.52a21.42 21.42 0 0 1-.3 2.89c-.1.49-.31.9-.65 1.25-.33.33-.73.53-1.17.58-1.4.17-3.53.26-6.37.26-2.84 0-4.96-.09-6.37-.26a1.97 1.97 0 0 1-1.18-.58 2.4 2.4 0 0 1-.66-1.25 21.36 21.36 0 0 1-.3-4.4l.02-1.53a21.37 21.37 0 0 1 .3-2.89c.1-.5.31-.9.65-1.25.33-.33.73-.53 1.17-.59 1.4-.17 3.53-.25 6.37-.25 2.84 0 4.96.08 6.37.25.44.06.84.26 1.18.6.33.33.55.75.66 1.24a21.2 21.2 0 0 1 .28 2.88l.01 1.53zm-4.86 0c0-.25-.1-.43-.28-.55L238 2020v7l5.86-2.95c.19-.12.28-.3.28-.55z"/></defs><g><g transform="translate(-232 -2017)"><use fill="#fff" xlink:href="#46swa"/></g></g></svg>